<svg xmlns="http://www.w3.org/2000/svg" width="20" height="20" fill="none" viewBox="0 0 20 20"><path fill="#3AB83A" d="M10 20C15.522 20 20 15.522 20 10C20 4.47798 15.522 0 10 0C4.47798 0 0 4.47798 0 10C0.0040783 15.522 4.47798 20 10 20Z"/><path fill="#fff" fill-opacity=".602" d="M10 3.33203V8.2627L14.1639 10.1224L10 3.33203Z"/><path fill="#fff" d="M9.99988 3.33203L5.83594 10.1224L9.99988 8.2627V3.33203Z"/><path fill="#fff" fill-opacity=".602" d="M10 13.3149V16.6632L14.168 10.8965L10 13.3149Z"/><path fill="#fff" d="M9.99988 16.6632V13.3149L5.83594 10.8965L9.99988 16.6632Z"/><path fill="#fff" fill-opacity=".2" d="M10 12.5399L14.1639 10.1214L10 8.26172V12.5399Z"/><path fill="#fff" fill-opacity=".602" d="M5.83594 10.1214L9.99988 12.5399V8.26172L5.83594 10.1214Z"/></svg>